<svg width="245" height="40" viewBox="0 0 245 40" fill="none" xmlns="http://www.w3.org/2000/svg">
<path d="M50.82 30V16.112H53.984L54.264 18.464C54.6933 17.6427 55.3093 16.9893 56.112 16.504C56.9333 16.0187 57.8947 15.776 58.996 15.776C60.7133 15.776 62.048 16.3173 63 17.4C63.952 18.4827 64.428 20.0693 64.428 22.16V30H60.844V22.496C60.844 21.3013 60.6013 20.3867 60.116 19.752C59.6307 19.1173 58.8747 18.8 57.848 18.8C56.84 18.8 56.0093 19.1547 55.356 19.864C54.7213 20.5733 54.404 21.5627 54.404 22.832V30H50.82ZM73.0632 30.336C71.3272 30.336 69.9832 29.7947 69.0312 28.712C68.0978 27.6293 67.6312 26.0427 67.6312 23.952V16.112H71.1872V23.616C71.1872 24.8107 71.4298 25.7253 71.9152 26.36C72.4005 26.9947 73.1658 27.312 74.2112 27.312C75.2005 27.312 76.0125 26.9573 76.6472 26.248C77.3005 25.5387 77.6272 24.5493 77.6272 23.28V16.112H81.2112V30H78.0472L77.7672 27.648C77.3378 28.4693 76.7125 29.1227 75.8912 29.608C75.0885 30.0933 74.1458 30.336 73.0632 30.336ZM83.5743 30L88.6143 23.056L83.5743 16.112H87.4103L90.9383 21.04L94.4383 16.112H98.3023L93.2343 23.056L98.3023 30H94.4383L90.9383 25.072L87.4103 30H83.5743ZM106.774 30C105.318 30 104.151 29.6453 103.274 28.936C102.396 28.2267 101.958 26.9667 101.958 25.156V19.108H99.5776V16.112H101.958L102.378 12.388H105.542V16.112H109.294V19.108H105.542V25.184C105.542 25.856 105.682 26.3227 105.962 26.584C106.26 26.8267 106.764 26.948 107.474 26.948H109.21V30H106.774ZM111.195 33.108L118.195 8.244H121.695L114.667 33.108H111.195Z" fill="#003C3C"/>
<path d="M129.896 30.336C128.664 30.336 127.581 30.14 126.648 29.748C125.715 29.3373 124.968 28.7773 124.408 28.068C123.848 27.3587 123.512 26.5373 123.4 25.604H127.012C127.124 26.1453 127.423 26.612 127.908 27.004C128.412 27.3773 129.056 27.564 129.84 27.564C130.624 27.564 131.193 27.4053 131.548 27.088C131.921 26.7707 132.108 26.4067 132.108 25.996C132.108 25.3987 131.847 24.9973 131.324 24.792C130.801 24.568 130.073 24.3533 129.14 24.148C128.543 24.0173 127.936 23.8587 127.32 23.672C126.704 23.4853 126.135 23.252 125.612 22.972C125.108 22.6733 124.697 22.3 124.38 21.852C124.063 21.3853 123.904 20.816 123.904 20.144C123.904 18.912 124.389 17.876 125.36 17.036C126.349 16.196 127.731 15.776 129.504 15.776C131.147 15.776 132.453 16.1587 133.424 16.924C134.413 17.6893 135.001 18.744 135.188 20.088H131.8C131.595 19.0613 130.82 18.548 129.476 18.548C128.804 18.548 128.281 18.6787 127.908 18.94C127.553 19.2013 127.376 19.528 127.376 19.92C127.376 20.3307 127.647 20.6573 128.188 20.9C128.729 21.1427 129.448 21.3667 130.344 21.572C131.315 21.796 132.201 22.048 133.004 22.328C133.825 22.5893 134.479 22.9907 134.964 23.532C135.449 24.0547 135.692 24.8107 135.692 25.8C135.711 26.6587 135.487 27.4333 135.02 28.124C134.553 28.8147 133.881 29.356 133.004 29.748C132.127 30.14 131.091 30.336 129.896 30.336ZM140.799 13.956C140.146 13.956 139.604 13.76 139.175 13.368C138.764 12.976 138.559 12.4813 138.559 11.884C138.559 11.2867 138.764 10.8013 139.175 10.428C139.604 10.036 140.146 9.84 140.799 9.84C141.452 9.84 141.984 10.036 142.395 10.428C142.824 10.8013 143.039 11.2867 143.039 11.884C143.039 12.4813 142.824 12.976 142.395 13.368C141.984 13.76 141.452 13.956 140.799 13.956ZM139.007 30V16.112H142.591V30H139.007ZM152.52 30C151.064 30 149.897 29.6453 149.02 28.936C148.142 28.2267 147.704 26.9667 147.704 25.156V19.108H145.324V16.112H147.704L148.124 12.388H151.288V16.112H155.04V19.108H151.288V25.184C151.288 25.856 151.428 26.3227 151.708 26.584C152.006 26.8267 152.51 26.948 153.22 26.948H154.956V30H152.52ZM164.509 30.336C163.109 30.336 161.868 30.0373 160.785 29.44C159.703 28.8427 158.853 28.0027 158.237 26.92C157.621 25.8373 157.313 24.5867 157.313 23.168C157.313 21.7307 157.612 20.452 158.209 19.332C158.825 18.212 159.665 17.344 160.729 16.728C161.812 16.0933 163.081 15.776 164.537 15.776C165.9 15.776 167.104 16.0747 168.149 16.672C169.195 17.2693 170.007 18.0907 170.585 19.136C171.183 20.1627 171.481 21.3107 171.481 22.58C171.481 22.7853 171.472 23 171.453 23.224C171.453 23.448 171.444 23.6813 171.425 23.924H160.869C160.944 25.0067 161.317 25.856 161.989 26.472C162.68 27.088 163.511 27.396 164.481 27.396C165.209 27.396 165.816 27.2373 166.301 26.92C166.805 26.584 167.179 26.1547 167.421 25.632H171.061C170.8 26.5093 170.361 27.312 169.745 28.04C169.148 28.7493 168.401 29.3093 167.505 29.72C166.628 30.1307 165.629 30.336 164.509 30.336ZM164.537 18.688C163.66 18.688 162.885 18.94 162.213 19.444C161.541 19.9293 161.112 20.676 160.925 21.684H167.841C167.785 20.7693 167.449 20.0413 166.833 19.5C166.217 18.9587 165.452 18.688 164.537 18.688ZM174.496 30V16.112H177.66L177.968 17.988C178.416 17.316 179.004 16.784 179.732 16.392C180.478 15.9813 181.337 15.776 182.308 15.776C184.454 15.776 185.976 16.6067 186.872 18.268C187.376 17.5027 188.048 16.896 188.888 16.448C189.746 16 190.68 15.776 191.688 15.776C193.498 15.776 194.889 16.3173 195.86 17.4C196.83 18.4827 197.316 20.0693 197.316 22.16V30H193.732V22.496C193.732 21.3013 193.498 20.3867 193.032 19.752C192.584 19.1173 191.884 18.8 190.932 18.8C189.961 18.8 189.177 19.1547 188.58 19.864C188.001 20.5733 187.712 21.5627 187.712 22.832V30H184.128V22.496C184.128 21.3013 183.894 20.3867 183.428 19.752C182.961 19.1173 182.242 18.8 181.272 18.8C180.32 18.8 179.545 19.1547 178.948 19.864C178.369 20.5733 178.08 21.5627 178.08 22.832V30H174.496ZM205.506 30.336C204.312 30.336 203.332 30.1493 202.566 29.776C201.801 29.384 201.232 28.8707 200.858 28.236C200.485 27.6013 200.298 26.9013 200.298 26.136C200.298 24.848 200.802 23.8027 201.81 23C202.818 22.1973 204.33 21.796 206.346 21.796H209.874V21.46C209.874 20.508 209.604 19.808 209.062 19.36C208.521 18.912 207.849 18.688 207.046 18.688C206.318 18.688 205.684 18.8653 205.142 19.22C204.601 19.556 204.265 20.06 204.134 20.732H200.634C200.728 19.724 201.064 18.8467 201.642 18.1C202.24 17.3533 203.005 16.784 203.938 16.392C204.872 15.9813 205.917 15.776 207.074 15.776C209.053 15.776 210.612 16.2707 211.75 17.26C212.889 18.2493 213.458 19.6493 213.458 21.46V30H210.406L210.07 27.76C209.66 28.5067 209.081 29.1227 208.334 29.608C207.606 30.0933 206.664 30.336 205.506 30.336ZM206.318 27.536C207.345 27.536 208.138 27.2 208.698 26.528C209.277 25.856 209.641 25.0253 209.79 24.036H206.738C205.786 24.036 205.105 24.2133 204.694 24.568C204.284 24.904 204.078 25.324 204.078 25.828C204.078 26.3693 204.284 26.7893 204.694 27.088C205.105 27.3867 205.646 27.536 206.318 27.536ZM216.879 36.16V16.112H220.071L220.463 18.1C220.911 17.484 221.499 16.9427 222.227 16.476C222.973 16.0093 223.935 15.776 225.111 15.776C226.417 15.776 227.584 16.0933 228.611 16.728C229.637 17.3627 230.449 18.2307 231.047 19.332C231.644 20.4333 231.943 21.684 231.943 23.084C231.943 24.484 231.644 25.7347 231.047 26.836C230.449 27.9187 229.637 28.7773 228.611 29.412C227.584 30.028 226.417 30.336 225.111 30.336C224.065 30.336 223.151 30.14 222.367 29.748C221.583 29.356 220.948 28.8053 220.463 28.096V36.16H216.879ZM224.355 27.2C225.493 27.2 226.436 26.8173 227.183 26.052C227.929 25.2867 228.303 24.2973 228.303 23.084C228.303 21.8707 227.929 20.872 227.183 20.088C226.436 19.304 225.493 18.912 224.355 18.912C223.197 18.912 222.245 19.304 221.499 20.088C220.771 20.8533 220.407 21.8427 220.407 23.056C220.407 24.2693 220.771 25.268 221.499 26.052C222.245 26.8173 223.197 27.2 224.355 27.2Z" fill="#41B38A"/>
<path d="M18.9597 12.5801L20.2954 14.8713V14.8685C20.441 15.1166 20.6498 15.3226 20.9009 15.466C21.1521 15.6093 21.437 15.685 21.727 15.6856H24.4001C24.6901 15.6851 24.9749 15.6094 25.2261 15.466C25.4773 15.3227 25.6861 15.1166 25.8316 14.8685L27.1673 12.5801C27.312 12.3315 27.3881 12.0496 27.3881 11.7628C27.3881 11.4759 27.312 11.1941 27.1673 10.9454L25.8316 8.65704C25.686 8.40867 25.4769 8.20248 25.2254 8.05909C24.9739 7.91571 24.6887 7.84016 24.3983 7.84H21.727C21.437 7.84051 21.1521 7.91622 20.9009 8.05959C20.6498 8.20295 20.441 8.40896 20.2954 8.65704L18.9597 10.9454C18.815 11.1941 18.7389 11.4759 18.7389 11.7628C18.7389 12.0496 18.815 12.3315 18.9597 12.5801Z" fill="#003C3C"/>
<path d="M21.284 12.1176L21.8632 13.1123V13.1111C21.9263 13.2188 22.0168 13.3083 22.1258 13.3705C22.2347 13.4327 22.3582 13.4656 22.484 13.4658H23.6431C23.7688 13.4656 23.8924 13.4328 24.0013 13.3705C24.1102 13.3083 24.2007 13.2188 24.2638 13.1111L24.843 12.1176C24.9058 12.0097 24.9388 11.8873 24.9388 11.7628C24.9388 11.6382 24.9058 11.5159 24.843 11.4079L24.2638 10.4144C24.2007 10.3066 24.11 10.2171 24.001 10.1548C23.8919 10.0926 23.7682 10.0598 23.6423 10.0597H22.484C22.3582 10.0599 22.2347 10.0928 22.1258 10.1551C22.0168 10.2173 21.9263 10.3067 21.8632 10.4144L21.284 11.4079C21.2213 11.5159 21.1882 11.6382 21.1882 11.7628C21.1882 11.8873 21.2213 12.0097 21.284 12.1176Z" fill="#E7FEFD"/>
<path fill-rule="evenodd" clip-rule="evenodd" d="M17.9516 18.612C18.37 18.3466 18.8553 18.2056 19.3509 18.2056H26.8692C27.3541 18.2056 27.8295 18.3406 28.242 18.5955L30.9044 20.2403L30.3135 21.1967L27.6512 19.5519C27.4162 19.4067 27.1454 19.3298 26.8692 19.3298H23.6324V24.587H22.5082V19.3298H19.3509C19.0686 19.3298 18.7922 19.4101 18.5538 19.5613L15.9816 21.1931L15.3794 20.2438L17.9516 18.612Z" fill="#558887"/>
<path d="M18.9793 29.1452L20.3149 31.4364V31.4336C20.4605 31.6817 20.6693 31.8877 20.9205 32.0311C21.1717 32.1745 21.4565 32.2502 21.7465 32.2507H24.4196C24.7096 32.2502 24.9945 32.1745 25.2457 32.0312C25.4969 31.8878 25.7056 31.6818 25.8512 31.4336L27.1868 29.1452C27.3315 28.8966 27.4077 28.6148 27.4077 28.3279C27.4077 28.041 27.3315 27.7592 27.1868 27.5106L25.8512 25.2222C25.7055 24.9738 25.4965 24.7676 25.2449 24.6242C24.9934 24.4808 24.7082 24.4053 24.4179 24.4051H21.7465C21.4565 24.4056 21.1717 24.4813 20.9205 24.6247C20.6693 24.7681 20.4605 24.9741 20.3149 25.2222L18.9793 27.5106C18.8346 27.7592 18.7584 28.041 18.7584 28.3279C18.7584 28.6148 18.8346 28.8966 18.9793 29.1452Z" fill="#003C3C"/>
<path d="M21.3035 28.6827L21.8827 29.6774V29.6762C21.9458 29.7839 22.0364 29.8734 22.1453 29.9356C22.2542 29.9978 22.3777 30.0307 22.5035 30.0309H23.6626C23.7884 30.0307 23.9119 29.9979 24.0208 29.9356C24.1297 29.8734 24.2203 29.7839 24.2834 29.6762L24.8626 28.6827C24.9253 28.5748 24.9583 28.4524 24.9583 28.3279C24.9583 28.2033 24.9253 28.081 24.8626 27.973L24.2834 26.9795C24.2202 26.8717 24.1296 26.7822 24.0205 26.7199C23.9114 26.6577 23.7878 26.6249 23.6619 26.6248H22.5035C22.3777 26.625 22.2542 26.6579 22.1453 26.7202C22.0364 26.7824 21.9458 26.8718 21.8827 26.9795L21.3035 27.973C21.2408 28.081 21.2078 28.2033 21.2078 28.3279C21.2078 28.4524 21.2408 28.5748 21.3035 28.6827Z" fill="#E7FEFD"/>
<path d="M29.8047 23.5243L31.1404 25.8155V25.8127C31.2859 26.0608 31.4947 26.2668 31.7459 26.4102C31.9971 26.5535 32.2819 26.6293 32.572 26.6298H35.245C35.5351 26.6293 35.8199 26.5536 36.0711 26.4103C36.3223 26.2669 36.5311 26.0608 36.6766 25.8127L38.0123 23.5243C38.157 23.2757 38.2331 22.9939 38.2331 22.707C38.2331 22.4201 38.157 22.1383 38.0123 21.8897L36.6766 19.6013C36.5309 19.3529 36.3219 19.1467 36.0704 19.0033C35.8188 18.8599 35.5336 18.7844 35.2433 18.7842H32.572C32.2819 18.7847 31.9971 18.8604 31.7459 19.0038C31.4947 19.1472 31.2859 19.3532 31.1404 19.6013L29.8047 21.8897C29.66 22.1383 29.5839 22.4201 29.5839 22.707C29.5839 22.9939 29.66 23.2757 29.8047 23.5243Z" fill="#003C3C"/>
<path d="M32.129 23.0618L32.7082 24.0566V24.0553C32.7713 24.163 32.8618 24.2525 32.9707 24.3147C33.0797 24.377 33.2032 24.4098 33.3289 24.4101H34.488C34.6138 24.4099 34.7373 24.377 34.8463 24.3148C34.9552 24.2525 35.0457 24.1631 35.1088 24.0553L35.688 23.0618C35.7507 22.9539 35.7838 22.8315 35.7838 22.707C35.7838 22.5825 35.7507 22.4601 35.688 22.3522L35.1088 21.3587C35.0457 21.2508 34.955 21.1613 34.8459 21.0991C34.7369 21.0368 34.6132 21.004 34.4873 21.0039H33.3289C33.2032 21.0042 33.0797 21.037 32.9707 21.0993C32.8618 21.1615 32.7713 21.2509 32.7082 21.3587L32.129 22.3522C32.0662 22.4601 32.0332 22.5825 32.0332 22.707C32.0332 22.8315 32.0662 22.9539 32.129 23.0618Z" fill="#E7FEFD"/>
<path d="M8.18079 23.5243L9.51647 25.8155V25.8127C9.66203 26.0608 9.87082 26.2668 10.122 26.4102C10.3732 26.5535 10.658 26.6293 10.9481 26.6298H13.6211C13.9112 26.6293 14.196 26.5536 14.4472 26.4103C14.6984 26.2669 14.9072 26.0608 15.0527 25.8127L16.3884 23.5243C16.5331 23.2757 16.6092 22.9939 16.6092 22.707C16.6092 22.4201 16.5331 22.1383 16.3884 21.8897L15.0527 19.6013C14.907 19.3529 14.698 19.1467 14.4465 19.0033C14.1949 18.8599 13.9097 18.7844 13.6194 18.7842H10.9481C10.658 18.7847 10.3732 18.8604 10.122 19.0038C9.87082 19.1472 9.66203 19.3532 9.51647 19.6013L8.18079 21.8897C8.03611 22.1383 7.95996 22.4201 7.95996 22.707C7.95996 22.9939 8.03611 23.2757 8.18079 23.5243Z" fill="#003C3C"/>
<path d="M10.5051 23.0618L11.0843 24.0566V24.0553C11.1474 24.163 11.2379 24.2525 11.3468 24.3147C11.4558 24.377 11.5793 24.4098 11.705 24.4101H12.8641C12.9899 24.4099 13.1134 24.377 13.2224 24.3148C13.3313 24.2525 13.4218 24.1631 13.4849 24.0553L14.0641 23.0618C14.1268 22.9539 14.1599 22.8315 14.1599 22.707C14.1599 22.5825 14.1268 22.4601 14.0641 22.3522L13.4849 21.3587C13.4218 21.2508 13.3311 21.1613 13.222 21.0991C13.113 21.0368 12.9893 21.004 12.8634 21.0039H11.705C11.5793 21.0042 11.4558 21.037 11.3468 21.0993C11.2379 21.1615 11.1474 21.2509 11.0843 21.3587L10.5051 22.3522C10.4423 22.4601 10.4093 22.5825 10.4093 22.707C10.4093 22.8315 10.4423 22.9539 10.5051 23.0618Z" fill="#E7FEFD"/>
</svg>
